<?xml version="1.0" encoding="UTF-8"?>
<svg version="1.1" xmlns="http://www.w3.org/2000/svg" width="621" height="402">
<path d="M0 0 C3.99859483 0.55280113 5.98807717 2.53395423 8.875 5.25 C11.53159176 7.73170641 14.13942629 10.10800119 17.015625 12.3359375 C23.41687934 17.64599889 28.57668567 26.7658161 29.78515625 34.99609375 C30.13782223 43.83082858 27.85621488 49.76305539 23 57 C22.19703854 58.38936665 21.40360146 59.78433694 20.625 61.1875 C20.08875 62.115625 19.5525 63.04375 19 64 C18.34 64 17.68 64 17 64 C16.72381836 64.59224365 16.44763672 65.1844873 16.16308594 65.79467773 C15.06261162 67.88128238 13.90776708 69.48940486 12.390625 71.28515625 C2.55754167 83.10274028 -4.39700703 91.91677839 -3.51953125 107.8671875 C-2.93585489 113.8756995 -0.81551616 117.52076328 3.66796875 121.46875 C5.11059812 122.64752554 6.55514417 123.82395456 8 125 C8 125.99 8 126.98 8 128 C8.99 128.33 9.98 128.66 11 129 C11 130.32 11 131.64 11 133 C-1.7411317 129.99862486 -14.470647 124.56546286 -23.359375 114.76171875 C-25.04655119 112.82006691 -25.04655119 112.82006691 -27.75 111.125 C-32.77607606 106.37815039 -34.24741516 99.79306227 -34.5625 93.0625 C-34.29062773 85.52775424 -31.67034648 79.03120411 -26.6875 73.375 C-25.3571875 72.199375 -25.3571875 72.199375 -24 71 C-21.89823514 68.61827032 -19.83121403 66.20943442 -17.76953125 63.79296875 C-17.18558594 63.20128906 -16.60164063 62.60960937 -16 62 C-15.34 62 -14.68 62 -14 62 C-14 61.34 -14 60.68 -14 60 C-12.49609375 58.5546875 -12.49609375 58.5546875 -10.4375 56.875 C-6.17267896 53.2431206 -2.52820534 49.34372726 1 45 C1.49886719 44.38898438 1.99773437 43.77796875 2.51171875 43.1484375 C8.22255342 35.71944341 7.42143119 26.99395833 7 18 C6.56966475 15.14736527 5.90405939 12.76240371 5 10 C4.690625 9.030625 4.38125 8.06125 4.0625 7.0625 C3.12547395 4.65374869 3.12547395 4.65374869 0 4 C0 2.68 0 1.36 0 0 Z " fill="#F2F2F2" transform="translate(157,132)"/>
<path d="M0 0 C5.61 0 11.22 0 17 0 C18.30422651 4.56479277 19.35217302 8.5733592 20.0625 13.1875 C20.57828766 16.50814946 21.12463367 19.75417262 22 23 C24.13718512 16.89375679 25.85628419 10.79854557 27.3515625 4.50390625 C28 2 28 2 29 0 C31.47923801 -0.02685095 33.9581884 -0.04676547 36.4375 -0.0625 C37.14455078 -0.07087891 37.85160156 -0.07925781 38.58007812 -0.08789062 C40.38693559 -0.09653588 42.19387603 -0.05220011 44 0 C47.03734348 3.03734348 46.15434629 11.22361386 46.5625 15.5 C46.6310318 16.2040799 46.6995636 16.90815979 46.77017212 17.63357544 C47.78068553 28.11073562 48.42250292 38.46872359 48 49 C44.49852959 50.1671568 41.67329964 50.13357453 38 50 C37.01 49.505 37.01 49.505 36 49 C35.58935547 46.40795898 35.58935547 46.40795898 35.3671875 42.99609375 C35.28339844 41.78115234 35.19960938 40.56621094 35.11328125 39.31445312 C35.03464844 38.03505859 34.95601563 36.75566406 34.875 35.4375 C34.78863281 34.15423828 34.70226562 32.87097656 34.61328125 31.54882812 C34.40032722 28.36634838 34.19630849 25.18354291 34 22 C32.59279687 26.62787305 31.59788012 31.06920854 30.9375 35.875 C30.10832232 41.89167768 30.10832232 41.89167768 29 43 C24.66469082 43.14393457 20.33842269 43.04212061 16 43 C14.35 36.73 12.7 30.46 11 24 C10.87882813 25.54171875 10.75765625 27.0834375 10.6328125 28.671875 C10.4639727 30.69795263 10.29467814 32.7239924 10.125 34.75 C10.00705078 36.27367187 10.00705078 36.27367187 9.88671875 37.828125 C9.80292969 38.8078125 9.71914062 39.7875 9.6328125 40.796875 C9.55949707 41.69760742 9.48618164 42.59833984 9.41064453 43.52636719 C8.99389064 46.03680142 8.25925043 47.80415406 7 50 C2.65736138 50.16702456 -0.20960634 50.12999997 -4 48 C-3.46227511 31.90533786 -1.83222981 15.99455964 0 0 Z " fill="#EEEEEE" transform="translate(231,175)"/>
<path d="M0 0 C0.99 0.33 1.98 0.66 3 1 C3 1.66 3 2.32 3 3 C3.99 3.33 4.98 3.66 6 4 C10.61457551 12.37459999 10.17314482 24.26683462 8.30859375 33.37890625 C6.34683221 39.80593255 3.48508318 45.92544875 -1 51 C-1.66 51 -2.32 51 -3 51 C-3.66 52.32 -4.32 53.64 -5 55 C-5.66 55 -6.32 55 -7 55 C-7.66 56.32 -8.32 57.64 -9 59 C-9.66 59 -10.32 59 -11 59 C-11.33 60.32 -11.66 61.64 -12 63 C-12.99 63 -13.98 63 -15 63 C-15.0825 63.66 -15.165 64.32 -15.25 65 C-15.91056105 67.6422442 -16.66702359 69.38851968 -17.9375 71.75 C-20.17754185 76.01829792 -21.16901081 80.27648251 -22 85 C-25.85975779 83.53595394 -27.3108162 81.74290272 -29 78 C-30.52451151 67.21024022 -28.88290265 59.24456131 -23 50 C-22.34 50 -21.68 50 -21 50 C-20.79375 49.34 -20.5875 48.68 -20.375 48 C-17.77502412 42.32732536 -13.70934078 37.74217472 -9.5 33.1875 C-2.62767717 25.36832381 1.22744291 17.51111168 1 7 C0.80774797 4.59684967 0.47380012 2.36900061 0 0 Z " fill="#EAEAEA" transform="translate(193,168)"/>
<path d="M0 0 C4.86536641 4.34067003 6.43296558 8.55246069 7.0625 15 C7.26174171 20.79046209 6.58006895 24.8398621 4 30 C3.34 30 2.68 30 2 30 C1.6596875 30.928125 1.6596875 30.928125 1.3125 31.875 C-0.50206594 34.81286867 -1.6389836 35.1597459 -5 36 C-10.99451592 36.57042973 -15.90739603 36.55297952 -21 33 C-24.41690197 29.76879923 -26.67372661 26.78534305 -27 22 C-27.05027344 21.2678125 -27.10054688 20.535625 -27.15234375 19.78125 C-27.38412927 13.77336936 -26.77893048 8.40347593 -24 3 C-18.35122497 -2.79361542 -6.98930928 -4.65953952 0 0 Z M-12 8 C-14.27947698 11.41921547 -14.32513105 12.90310177 -14.375 16.9375 C-14.40335937 17.97777344 -14.43171875 19.01804688 -14.4609375 20.08984375 C-13.90019633 23.63011638 -12.72384266 24.76601837 -10 27 C-6.86219258 25.36129169 -6.86219258 25.36129169 -6.3125 22.8125 C-5.74675066 17.72075597 -5.79039588 12.98961701 -7 8 C-9.41619823 7.74969023 -9.41619823 7.74969023 -12 8 Z " fill="#EDEDED" transform="translate(311,189)"/>
<path d="M0 0 C6.9659692 5.97083074 6.9659692 5.97083074 7.53515625 10.86328125 C7.60372497 19.04255006 7.60372497 19.04255006 6.1875 21.875 C0.2475 21.875 -5.6925 21.875 -11.8125 21.875 C-11.4825 23.195 -11.1525 24.515 -10.8125 25.875 C-5.47248179 27.21000455 -1.97294765 26.387545 3.1875 24.875 C5.28499995 27.23468744 6.15655704 28.42116994 6.375 31.625 C6.2821875 32.73875 6.2821875 32.73875 6.1875 33.875 C-0.66519736 37.09979876 -7.27349236 37.85960791 -14.8125 36.875 C-18.88751923 34.79991929 -21.52190629 32.88353899 -23.8125 28.875 C-24.56650337 24.87118368 -24.75541894 20.94332307 -24.8125 16.875 C-24.83699219 16.05 -24.86148437 15.225 -24.88671875 14.375 C-24.69808576 8.65644195 -22.50788796 5.57017469 -18.69921875 1.40625 C-13.86002524 -2.5212114 -5.55149831 -2.22059932 0 0 Z M-9.8125 7.875 C-10.4725 9.525 -11.1325 11.175 -11.8125 12.875 C-9.5025 12.875 -7.1925 12.875 -4.8125 12.875 C-4.8125 11.555 -4.8125 10.235 -4.8125 8.875 C-6.4625 8.545 -8.1125 8.215 -9.8125 7.875 Z " fill="#EFEFEF" transform="translate(399.8125,188.125)"/>
<path d="M0 0 C12.21 0 24.42 0 37 0 C37 2.97 37 5.94 37 9 C35 10 35 10 25 10 C25 22.87 25 35.74 25 49 C22.63386544 50.18306728 21.13219264 50.13354608 18.5 50.125 C17.7059375 50.12757813 16.911875 50.13015625 16.09375 50.1328125 C14 50 14 50 12 49 C11.67 36.79 11.34 24.58 11 12 C8.03 11.67 5.06 11.34 2 11 C1.34 10.67 0.68 10.34 0 10 C0 6.7 0 3.4 0 0 Z " fill="#F4F4F4" transform="translate(408,175)"/>
<path d="M0 0 C1.96849268 1.87006805 3.39536511 3.78182824 5 6 C5.99 4.02 6.98 2.04 8 0 C11.96 0 15.92 0 20 0 C20 5.34337202 17.72278624 7.36777243 14.53125 11.46484375 C12.81668167 14.30350408 12.5800937 15.74572617 13 19 C14.26574227 20.96682993 14.26574227 20.96682993 16 23 C18.51618227 26.88610373 20.4335803 30.32703746 21 35 C17.76699581 37.29004463 14.83155104 37.26122436 10.97265625 36.69140625 C7.46746897 35.46285546 6.04765239 33.00748945 4 30 C1.12579877 32.71604715 1.12579877 32.71604715 -1 36 C-6.27428534 37.05485707 -9.03665676 37.25606511 -14 35 C-13.06385433 33.27009975 -12.12602042 31.54111304 -11.1875 29.8125 C-10.66542969 28.84957031 -10.14335937 27.88664062 -9.60546875 26.89453125 C-8 24 -8 24 -6.23828125 21.44921875 C-4.79839561 19.09140587 -4.79839561 19.09140587 -5.08984375 16.54296875 C-6.19440619 13.45683077 -7.72897607 11.02759705 -9.5625 8.3125 C-13 3.20120724 -13 3.20120724 -13 1 C-8.28556812 -0.60290684 -4.79290267 -1.66709658 0 0 Z " fill="#EEEEEE" transform="translate(478,188)"/>
<path d="M0 0 C2.89047304 6.59476859 4.79940355 12.90634715 6 20 C6.14622803 19.42967041 6.29245605 18.85934082 6.44311523 18.27172852 C7.10434115 15.70105211 7.77084771 13.13177426 8.4375 10.5625 C8.66759766 9.66466797 8.89769531 8.76683594 9.13476562 7.84179688 C9.46831055 6.56079102 9.46831055 6.56079102 9.80859375 5.25390625 C10.11494751 4.06776733 10.11494751 4.06776733 10.42749023 2.85766602 C11 1 11 1 12 0 C13.85287502 -0.07226502 15.70833878 -0.0838122 17.5625 -0.0625 C18.57441406 -0.05347656 19.58632813 -0.04445312 20.62890625 -0.03515625 C21.41136719 -0.02355469 22.19382812 -0.01195312 23 0 C22.13052344 6.86798653 20.40997976 13.38818654 18.53955078 20.03369141 C18.01502446 21.9452457 17.53608697 23.86912678 17.05859375 25.79296875 C16.75050781 26.95441406 16.44242187 28.11585938 16.125 29.3125 C15.85945313 30.36050781 15.59390625 31.40851563 15.3203125 32.48828125 C14 35 14 35 11.16015625 36.3671875 C8.30316793 36.93929147 6.18266637 37.15812213 3.3125 36.8125 C2.56613281 36.73644531 1.81976563 36.66039062 1.05078125 36.58203125 C-1.45653396 35.87043131 -2.31483965 34.96639765 -4 33 C-4.96524511 30.26466149 -5.80190295 27.60295543 -6.5625 24.8125 C-6.77068359 24.08224609 -6.97886719 23.35199219 -7.19335938 22.59960938 C-9.31067013 15.106055 -11.16909997 7.75506694 -12 0 C-7.91556885 -1.53166168 -4.20544343 -0.63081652 0 0 Z " fill="#EDEDED" transform="translate(330,188)"/>
<path d="M0 0 C5.33499848 4.46986359 7.26628874 9.23982451 8.3203125 16.078125 C8.72223284 22.88397604 5.65634938 27.66162441 1.875 33 C1.25625 33.66 0.6375 34.32 0 35 C-0.66 35 -1.32 35 -2 35 C-2 35.66 -2 36.32 -2 37 C-8.75 41 -8.75 41 -11 41 C-11.33 41.99 -11.66 42.98 -12 44 C-12.99 44 -13.98 44 -15 44 C-15 44.66 -15 45.32 -15 46 C-15.763125 46.433125 -16.52625 46.86625 -17.3125 47.3125 C-20.33046024 49.20749829 -21.27104338 50.95374309 -23 54 C-23.66 54 -24.32 54 -25 54 C-25.05459773 52.43789839 -25.09306101 50.87522911 -25.125 49.3125 C-25.14820313 48.44238281 -25.17140625 47.57226562 -25.1953125 46.67578125 C-24.87099324 42.23260737 -23.78417338 39.79717792 -20.64453125 36.60546875 C-19.70996094 35.80753906 -18.77539062 35.00960937 -17.8125 34.1875 C-13.59705453 30.49760219 -9.85908462 26.75231496 -6.33984375 22.3984375 C-5.89769531 21.93695313 -5.45554688 21.47546875 -5 21 C-4.34 21 -3.68 21 -3 21 C-2.87625 20.46375 -2.7525 19.9275 -2.625 19.375 C-2 17 -2 17 -0.9375 14.4375 C0.37835739 9.61268958 0.15918744 4.97018551 0 0 Z " fill="#E7E7E7" transform="translate(201,209)"/>
<path d="M0 0 C2.27024968 -0.08097324 4.54132075 -0.13917704 6.8125 -0.1875 C8.07707031 -0.22230469 9.34164063 -0.25710937 10.64453125 -0.29296875 C14 0 14 0 15.88671875 1.32421875 C18.36124388 5.04903026 18.11594108 8.52196324 18.09765625 12.85546875 C18.0962413 13.51710526 18.09482635 14.17874176 18.09336853 14.86042786 C18.08777996 16.96949828 18.07522965 19.07846177 18.0625 21.1875 C18.05748352 22.61913909 18.05292087 24.05077985 18.04882812 25.48242188 C18.0378143 28.98831588 18.02055755 32.4941475 18 36 C13.52745503 37.49084832 9.47254497 37.49084832 5 36 C4.67 27.42 4.34 18.84 4 10 C2.68 9.34 1.36 8.68 0 8 C0 5.36 0 2.72 0 0 Z " fill="#EFEFEF" transform="translate(444,188)"/>
<path d="M0 0 C2.08153935 -0.13536022 4.16561206 -0.23215465 6.25 -0.3125 C7.41015625 -0.37050781 8.5703125 -0.42851562 9.765625 -0.48828125 C13 0 13 0 15.17773438 2.07617188 C17.46302147 5.7429187 17.46137596 7.97141059 17.390625 12.26953125 C17.38496521 12.95053391 17.37930542 13.63153656 17.37347412 14.33317566 C17.35120481 16.49368645 17.30103318 18.65249646 17.25 20.8125 C17.22992247 22.28317905 17.21167389 23.75388429 17.1953125 25.22460938 C17.15137326 28.8169525 17.08241456 32.40831006 17 36 C14.24921116 36.91692961 12.64051087 37.10886083 9.8125 37.0625 C8.554375 37.041875 7.29625 37.02125 6 37 C4.01039227 33.6816923 3.7638255 31.20040301 3.8046875 27.359375 C3.81113281 26.28945312 3.81757813 25.21953125 3.82421875 24.1171875 C3.84097656 23.00601563 3.85773438 21.89484375 3.875 20.75 C3.88402344 19.62335938 3.89304687 18.49671875 3.90234375 17.3359375 C3.92589342 14.55707635 3.9587832 11.7786461 4 9 C2.68 9 1.36 9 0 9 C0 6.03 0 3.06 0 0 Z " fill="#F6F6F6" transform="translate(354,188)"/>
<path d="M0 0 C2 1.0625 2 1.0625 3 3 C3.43076923 9.13846154 3.43076923 9.13846154 2 12 C0.02090602 12.02686553 -1.95828971 12.04633375 -3.9375 12.0625 C-5.03964844 12.07410156 -6.14179688 12.08570313 -7.27734375 12.09765625 C-10 12 -10 12 -11 11 C-11.45714286 3.91428571 -11.45714286 3.91428571 -10 1 C-6.7413581 -0.62932095 -3.56102656 -0.52673518 0 0 Z " fill="#E2E2E2" transform="translate(458,172)"/>
<path d="M0 0 C1.76953125 1.23046875 1.76953125 1.23046875 3 3 C3.10182022 6.10283722 2.49178378 8.91517448 2 12 C-1.96 12 -5.92 12 -10 12 C-11.52491998 8.95016004 -11.23562548 6.3576631 -11 3 C-8.90258304 -1.06374535 -4.06224211 -0.83538043 0 0 Z " fill="#E7E7E7" transform="translate(367,172)"/>
<path d="M0 0 C1.65 1.65 3.3 3.3 5 5 C4.67 5.66 4.34 6.32 4 7 C3.67 6.67 3.34 6.34 3 6 C2.01 9.465 2.01 9.465 1 13 C-0.32229189 10.35541621 -0.09677194 8.32238699 -0.0625 5.375 C-0.05347656 4.37210938 -0.04445312 3.36921875 -0.03515625 2.3359375 C-0.02355469 1.56507813 -0.01195312 0.79421875 0 0 Z " fill="#BCBCBC" transform="translate(201,209)"/>
<path d="M0 0 C0.99 0.33 1.98 0.66 3 1 C1.88121617 2.17262904 0.75476949 3.33795138 -0.375 4.5 C-1.00148438 5.1496875 -1.62796875 5.799375 -2.2734375 6.46875 C-4 8 -4 8 -6 8 C-4.55746343 4.63408134 -2.66735273 2.48952921 0 0 Z " fill="#C3C3C3" transform="translate(383,188)"/>
</svg>
